<svg xmlns="http://www.w3.org/2000/svg" viewBox="0 0 1000 300" width="1000" height="300">
	<style>
		tspan { white-space:pre }
		.shp0 { fill: #22ffc2 } 
		.shp1 { fill: #eeeeee } 
	</style>
	<g id="OrbitNX">
		<path id="rbitNX " fill-rule="evenodd" class="shp0" d="M319.28 165.62L319.28 235.67L306 235.67L306 110.56L319.28 110.56L319.28 128.77C328.14 114.34 340.92 107.13 357.63 107.13C358.49 107.13 359.56 107.13 360.84 107.13L360.84 119.34C359.42 119.2 358.2 119.13 357.2 119.13C348.35 119.13 340.71 121.63 334.28 126.63C326.57 132.48 321.85 140.55 320.14 150.84C319.57 154.26 319.28 159.19 319.28 165.62ZM403.26 214.46L403.26 235.67L389.98 235.67L389.98 60L403.26 60L403.26 131.77C413.97 115.34 428.83 107.13 447.82 107.13C463.96 107.13 477.17 112.84 487.46 124.27C498.45 136.27 503.95 152.55 503.95 173.12C503.95 193.68 498.45 209.96 487.46 221.96C477.17 233.39 463.96 239.1 447.82 239.1C428.69 239.1 413.83 230.89 403.26 214.46ZM446.32 119.13C429.61 119.13 417.47 126.27 409.9 140.55C405.19 149.26 402.83 160.33 402.83 173.76C402.83 186.33 405.19 196.97 409.9 205.68C417.47 219.96 429.61 227.1 446.32 227.1C460.32 227.1 471.32 222.03 479.32 211.89C486.89 202.32 490.67 189.4 490.67 173.12C490.67 156.83 486.89 143.91 479.32 134.34C471.18 124.2 460.18 119.13 446.32 119.13ZM533.73 68.14L551.08 68.14L551.08 86.78L533.73 86.78L533.73 68.14ZM535.66 110.56L549.37 110.56L549.37 235.67L535.66 235.67L535.66 110.56ZM576.15 110.56L592.43 110.56L592.43 74.78L605.71 74.78L605.71 110.56L645.56 110.56L645.56 122.56L605.71 122.56L605.71 201.82C605.71 211.11 606.79 217.25 608.93 220.25C612.07 224.82 618.43 227.1 627.99 227.1C632.99 227.1 638.06 226.82 643.21 226.25L643.21 238.03C637.35 238.74 631.99 239.1 627.14 239.1C615 239.1 606.36 236.74 601.22 232.03C596.93 228.17 594.22 222.6 593.07 215.32C592.65 212.32 592.43 207.68 592.43 201.39L592.43 122.56L576.15 122.56L576.15 110.56ZM668.91 235.67L668.91 68.14L690.98 68.14L798.74 224.32L798.74 68.14L812.67 68.14L812.67 235.67L790.6 235.67L682.84 79.5L682.84 235.67L668.91 235.67ZM855.73 68.14L901.57 138.62L947.2 68.14L963.49 68.14L909.71 149.55L966.7 235.67L950.42 235.67L901.57 160.69L852.73 235.67L836.45 235.67L893.43 149.55L839.66 68.14L855.73 68.14Z" />
		<path id="Path 0" class="shp1" d="M156 40.86C151.33 41.88 145.02 43.51 142 44.49C138.98 45.48 132.9 48.08 128.5 50.28C124.1 52.47 117.8 56.07 114.5 58.26C111.2 60.46 104.52 66.14 99.66 70.88C94.8 75.62 88.67 82.65 86.04 86.5C83.41 90.35 79.81 96.65 78.03 100.5C76.26 104.35 73.32 111.77 71.51 117C69.69 122.23 67.67 129.88 67.02 134C66.37 138.13 65.98 143.52 66.17 146L66.5 150.5C82 159.38 87.06 161.97 87.75 161.98C88.68 161.99 88.99 159.22 88.95 151.25C88.92 145 89.55 137.57 90.46 133.5C91.31 129.65 92.62 124.25 93.36 121.5C94.09 118.75 96.33 113.35 98.32 109.5C100.31 105.65 102.74 101.58 103.72 100.47C104.7 99.35 107.52 95.97 110 92.97C112.47 89.96 115.8 86.38 117.39 85C118.98 83.63 123.03 80.55 126.39 78.17C129.75 75.78 134.75 72.68 137.5 71.28C140.25 69.87 144.98 67.86 148 66.81C151.02 65.76 156.65 64.23 160.5 63.4C164.35 62.58 172.23 61.9 178 61.9C183.77 61.9 191.65 62.58 195.5 63.4C199.35 64.23 204.98 65.76 208 66.81C211.02 67.86 215.75 69.87 218.5 71.27C221.25 72.67 226.65 76.06 230.5 78.79C234.35 81.52 239.24 85.5 241.37 87.63C243.5 89.76 247.48 94.65 250.21 98.5C252.95 102.35 256.43 107.98 257.95 111C259.47 114.02 261.66 119.43 262.82 123C263.97 126.57 265.66 133.55 266.58 138.5C267.77 144.98 268.06 150.02 267.6 156.5C267.25 161.45 266.54 166.85 266.01 168.5C265.49 170.15 264.08 174.65 262.89 178.5C261.7 182.35 259.61 187.75 258.25 190.5C256.88 193.25 254.02 198.09 251.88 201.25C249.75 204.41 248.34 207.24 248.75 207.53C249.16 207.82 255.24 208.04 262.25 208.03L275 208C279.87 198.31 282.3 192.8 283.54 189.5C284.78 186.2 286.03 182.15 286.31 180.5C286.6 178.85 287.59 173.23 288.52 168C289.78 160.94 290.09 155.17 289.72 145.5C289.35 136.01 288.51 129.8 286.61 122.5C285.18 117 282.06 108.45 279.69 103.5C277.31 98.55 273.43 91.57 271.06 88C268.68 84.43 262.86 77.52 258.12 72.66C253.38 67.8 246.13 61.53 242 58.73C237.88 55.93 230.45 51.69 225.5 49.32C220.55 46.94 212 43.81 206.5 42.37C198.19 40.18 193.8 39.68 180.5 39.38C167.72 39.1 162.79 39.4 156 40.86Z" />
		<path id="Path 1" fill-rule="evenodd" class="shp0" d="M71.25 98.13C75.51 98.06 79 98.23 79 98.5C79 98.77 78.03 100.91 76.85 103.25C75.67 105.59 73.71 110.43 70.3 120.5L61.4 121.78C56.51 122.48 50.59 123.94 48.25 125.03C45.91 126.11 43.99 127.56 43.97 128.25C43.96 128.94 45.23 131.3 46.8 133.5C48.37 135.7 52.32 139.49 55.58 141.93C58.84 144.36 63.08 147.55 65 149.02C66.92 150.49 71.88 153.6 76 155.93C80.13 158.27 88.45 162.42 94.5 165.16C100.55 167.89 111.58 172.52 119 175.43C126.42 178.35 138.13 182.56 145 184.79C151.88 187.01 164.48 190.71 173 193.01C181.52 195.3 193.9 198.27 200.5 199.62C207.1 200.96 217.9 202.9 224.5 203.92C231.1 204.94 240.55 206.34 245.5 207.01C251.37 207.82 261.12 208.07 273.5 207.73C287.27 207.35 294.01 206.74 298 205.52C301.02 204.59 304.51 203.19 305.75 202.41C307.82 201.11 307.89 200.78 306.62 198.25C305.85 196.74 303.72 193.99 301.87 192.14C300.01 190.29 296.02 186.92 293 184.64C289.98 182.37 287.21 180.06 286.85 179.51C286.49 178.95 286.6 177.15 287.08 175.5C287.57 173.85 288.53 168.53 290.5 154.88L300.5 161.81C306 165.62 313.88 172.28 318.02 176.62C322.16 180.95 326.62 186.75 327.93 189.5C329.64 193.09 330.3 196.19 330.28 200.5C330.26 203.8 329.59 208.07 328.8 210C328 211.93 325.58 215.25 323.42 217.39C321.27 219.53 316.8 222.56 313.5 224.13C310.2 225.7 304.13 227.67 300 228.5C295.88 229.34 285.98 230.3 278 230.64C266.66 231.12 258.92 230.77 242.5 229.05C230.95 227.84 215.42 225.75 208 224.4C200.58 223.06 187.98 220.37 180 218.44C172.02 216.5 159.2 213.07 151.5 210.81C143.8 208.55 132.77 205.01 127 202.93C121.23 200.85 113.46 198 109.75 196.58C106.04 195.16 98.39 191.8 92.75 189.12C87.11 186.43 78 182.04 72.5 179.35C67 176.66 57.89 171.43 52.25 167.73C46.61 164.03 38.47 157.51 34.16 153.25C28.82 147.98 25.47 143.66 23.66 139.75C21.83 135.81 21.01 132.35 21.02 128.75C21.03 125.86 21.59 121.75 22.27 119.62C22.94 117.48 25.07 114.14 27 112.2C28.93 110.25 32.07 107.67 34 106.45C35.93 105.24 40.88 103.22 45 101.96C49.13 100.7 54.98 99.35 58 98.97C61.02 98.58 66.99 98.2 71.25 98.13ZM104.5 98.84L111.5 99.48C115.35 99.83 124.13 100.98 131 102.04C137.88 103.1 147.77 104.9 153 106.04C158.23 107.18 168.8 109.69 176.5 111.62C184.2 113.54 195.23 116.48 201 118.15C206.77 119.82 216.45 122.9 222.5 124.99C228.55 127.08 238.23 130.65 244 132.91C249.77 135.18 257.42 138.48 267.5 143.5L267.3 154.5C267.19 160.55 266.86 166.06 266.55 166.75C266.16 167.64 263.23 166.69 256.25 163.4C250.89 160.88 241.1 156.66 234.5 154.04C227.9 151.42 216.88 147.43 210 145.17C203.13 142.91 191.2 139.3 183.5 137.14C175.8 134.97 162.3 131.62 153.5 129.69C144.7 127.76 133 125.47 127.5 124.6C122 123.73 112.77 122.56 107 122C101.23 121.44 95.94 120.99 95.25 120.99C94.56 121 94 120.32 94 119.5C94 118.68 95.17 115.64 96.61 112.75C98.04 109.86 100.4 105.55 101.86 103.17L104.5 98.84Z" />
		<path id="Path 2" class="shp1" d="M69.61 180.75C69.98 182.26 71.28 186.2 72.5 189.5C73.72 192.8 76.2 198.43 78 202C79.8 205.57 83.11 211.2 85.36 214.5C87.61 217.8 91.45 222.75 93.89 225.5C96.32 228.25 101.06 232.89 104.41 235.82C107.76 238.74 112.98 242.78 116 244.79C119.02 246.8 124.88 250.09 129 252.11C133.13 254.14 140.33 256.94 145 258.35C149.67 259.77 156.42 261.39 160 261.95C163.58 262.52 171.67 262.98 178 262.98C184.33 262.98 192.42 262.52 196 261.95C199.58 261.39 206.33 259.76 211 258.34C215.67 256.92 222.65 254.25 226.5 252.41C230.35 250.56 236.08 247.36 239.23 245.28C242.39 243.2 247.65 239.25 250.93 236.5C254.21 233.75 256.91 231.27 256.95 231C256.98 230.73 249.92 229.77 241.25 228.89L225.5 227.28C216.2 231.91 211.48 234.05 209 235.02C206.52 236 200.9 237.54 196.5 238.46C191.99 239.39 183.91 240.12 178 240.12C172.23 240.12 163.9 239.39 159.5 238.49C155.1 237.6 147.9 235.31 143.5 233.42C139.1 231.53 133.09 228.52 130.15 226.74C127.2 224.96 121.84 220.8 118.24 217.5C114.64 214.2 109.81 209.02 107.5 206C105.2 202.98 102.23 198.56 100.91 196.19C98.69 192.21 97.38 191.34 84 184.92C76.02 181.09 69.38 177.97 69.23 177.98C69.07 177.99 69.25 179.24 69.61 180.75Z" />
	</g>
</svg>